<svg width="77" height="23" viewBox="0 0 77 23" fill="none" xmlns="http://www.w3.org/2000/svg">
<rect width="77" height="23" rx="4" fill="#78716C"/>
<path d="M8.75767 5.526H11.0257V18H8.75767V5.526ZM13.9055 8.892C14.3255 8.772 14.8715 8.658 15.5435 8.55C16.2155 8.442 16.9595 8.388 17.7755 8.388C18.5435 8.388 19.1855 8.496 19.7015 8.712C20.2175 8.916 20.6255 9.21 20.9255 9.594C21.2375 9.966 21.4535 10.422 21.5735 10.962C21.7055 11.49 21.7715 12.072 21.7715 12.708V18H19.5935V13.05C19.5935 12.546 19.5575 12.12 19.4855 11.772C19.4255 11.412 19.3175 11.124 19.1615 10.908C19.0175 10.68 18.8135 10.518 18.5495 10.422C18.2975 10.314 17.9855 10.26 17.6135 10.26C17.3375 10.26 17.0495 10.278 16.7495 10.314C16.4495 10.35 16.2275 10.38 16.0835 10.404V18H13.9055V8.892ZM24.3268 6.102L26.5048 5.742V8.586H29.8528V10.404H26.5048V14.238C26.5048 14.994 26.6248 15.534 26.8648 15.858C27.1048 16.182 27.5128 16.344 28.0888 16.344C28.4848 16.344 28.8328 16.302 29.1328 16.218C29.4448 16.134 29.6908 16.056 29.8708 15.984L30.2308 17.712C29.9788 17.82 29.6488 17.928 29.2408 18.036C28.8328 18.156 28.3528 18.216 27.8008 18.216C27.1288 18.216 26.5648 18.126 26.1088 17.946C25.6648 17.766 25.3108 17.508 25.0468 17.172C24.7828 16.824 24.5968 16.41 24.4888 15.93C24.3808 15.438 24.3268 14.88 24.3268 14.256V6.102ZM31.2781 13.338C31.2781 12.51 31.3981 11.784 31.6381 11.16C31.8901 10.536 32.2201 10.02 32.6281 9.612C33.0361 9.192 33.5041 8.88 34.0321 8.676C34.5601 8.46 35.1001 8.352 35.6521 8.352C36.9481 8.352 37.9561 8.754 38.6761 9.558C39.4081 10.362 39.7741 11.562 39.7741 13.158C39.7741 13.278 39.7681 13.416 39.7561 13.572C39.7561 13.716 39.7501 13.848 39.7381 13.968H33.5281C33.5881 14.724 33.8521 15.312 34.3201 15.732C34.8001 16.14 35.4901 16.344 36.3901 16.344C36.9181 16.344 37.3981 16.296 37.8301 16.2C38.2741 16.104 38.6221 16.002 38.8741 15.894L39.1621 17.676C39.0421 17.736 38.8741 17.802 38.6581 17.874C38.4541 17.934 38.2141 17.988 37.9381 18.036C37.6741 18.096 37.3861 18.144 37.0741 18.18C36.7621 18.216 36.4441 18.234 36.1201 18.234C35.2921 18.234 34.5721 18.114 33.9601 17.874C33.3481 17.622 32.8441 17.28 32.4481 16.848C32.0521 16.404 31.7581 15.888 31.5661 15.3C31.3741 14.7 31.2781 14.046 31.2781 13.338ZM37.5961 12.366C37.5961 12.066 37.5541 11.784 37.4701 11.52C37.3861 11.244 37.2601 11.01 37.0921 10.818C36.9361 10.614 36.7381 10.458 36.4981 10.35C36.2701 10.23 35.9941 10.17 35.6701 10.17C35.3341 10.17 35.0401 10.236 34.7881 10.368C34.5361 10.488 34.3201 10.65 34.1401 10.854C33.9721 11.058 33.8401 11.292 33.7441 11.556C33.6481 11.82 33.5821 12.09 33.5461 12.366H37.5961ZM42.0833 8.892C42.5033 8.772 43.0493 8.658 43.7213 8.55C44.3933 8.442 45.1373 8.388 45.9533 8.388C46.7213 8.388 47.3633 8.496 47.8793 8.712C48.3953 8.916 48.8033 9.21 49.1033 9.594C49.4153 9.966 49.6313 10.422 49.7513 10.962C49.8833 11.49 49.9493 12.072 49.9493 12.708V18H47.7713V13.05C47.7713 12.546 47.7353 12.12 47.6633 11.772C47.6033 11.412 47.4953 11.124 47.3393 10.908C47.1953 10.68 46.9913 10.518 46.7273 10.422C46.4753 10.314 46.1633 10.26 45.7913 10.26C45.5153 10.26 45.2273 10.278 44.9273 10.314C44.6273 10.35 44.4053 10.38 44.2613 10.404V18H42.0833V8.892ZM54.9706 16.434C55.5466 16.434 55.9666 16.368 56.2306 16.236C56.4946 16.092 56.6266 15.852 56.6266 15.516C56.6266 15.204 56.4826 14.946 56.1946 14.742C55.9186 14.538 55.4566 14.316 54.8086 14.076C54.4126 13.932 54.0466 13.782 53.7106 13.626C53.3866 13.458 53.1046 13.266 52.8646 13.05C52.6246 12.834 52.4326 12.576 52.2886 12.276C52.1566 11.964 52.0906 11.586 52.0906 11.142C52.0906 10.278 52.4086 9.6 53.0446 9.108C53.6806 8.604 54.5446 8.352 55.6366 8.352C56.1886 8.352 56.7166 8.406 57.2206 8.514C57.7246 8.61 58.1026 8.706 58.3546 8.802L57.9586 10.566C57.7186 10.458 57.4126 10.362 57.0406 10.278C56.6686 10.182 56.2366 10.134 55.7446 10.134C55.3006 10.134 54.9406 10.212 54.6646 10.368C54.3886 10.512 54.2506 10.74 54.2506 11.052C54.2506 11.208 54.2746 11.346 54.3226 11.466C54.3826 11.586 54.4786 11.7 54.6106 11.808C54.7426 11.904 54.9166 12.006 55.1326 12.114C55.3486 12.21 55.6126 12.312 55.9246 12.42C56.4406 12.612 56.8786 12.804 57.2386 12.996C57.5986 13.176 57.8926 13.386 58.1206 13.626C58.3606 13.854 58.5346 14.118 58.6426 14.418C58.7506 14.718 58.8046 15.078 58.8046 15.498C58.8046 16.398 58.4686 17.082 57.7966 17.55C57.1366 18.006 56.1886 18.234 54.9526 18.234C54.1246 18.234 53.4586 18.162 52.9546 18.018C52.4506 17.886 52.0966 17.778 51.8926 17.694L52.2706 15.876C52.5946 16.008 52.9786 16.134 53.4226 16.254C53.8786 16.374 54.3946 16.434 54.9706 16.434ZM60.3171 13.338C60.3171 12.51 60.4371 11.784 60.6771 11.16C60.9291 10.536 61.2591 10.02 61.6671 9.612C62.0751 9.192 62.5431 8.88 63.0711 8.676C63.5991 8.46 64.1391 8.352 64.6911 8.352C65.9871 8.352 66.9951 8.754 67.7151 9.558C68.4471 10.362 68.8131 11.562 68.8131 13.158C68.8131 13.278 68.8071 13.416 68.7951 13.572C68.7951 13.716 68.7891 13.848 68.7771 13.968H62.5671C62.6271 14.724 62.8911 15.312 63.3591 15.732C63.8391 16.14 64.5291 16.344 65.4291 16.344C65.9571 16.344 66.4371 16.296 66.8691 16.2C67.3131 16.104 67.6611 16.002 67.9131 15.894L68.2011 17.676C68.0811 17.736 67.9131 17.802 67.6971 17.874C67.4931 17.934 67.2531 17.988 66.9771 18.036C66.7131 18.096 66.4251 18.144 66.1131 18.18C65.8011 18.216 65.4831 18.234 65.1591 18.234C64.3311 18.234 63.6111 18.114 62.9991 17.874C62.3871 17.622 61.8831 17.28 61.4871 16.848C61.0911 16.404 60.7971 15.888 60.6051 15.3C60.4131 14.7 60.3171 14.046 60.3171 13.338ZM66.6351 12.366C66.6351 12.066 66.5931 11.784 66.5091 11.52C66.4251 11.244 66.2991 11.01 66.1311 10.818C65.9751 10.614 65.7771 10.458 65.5371 10.35C65.3091 10.23 65.0331 10.17 64.7091 10.17C64.3731 10.17 64.0791 10.236 63.8271 10.368C63.5751 10.488 63.3591 10.65 63.1791 10.854C63.0111 11.058 62.8791 11.292 62.7831 11.556C62.6871 11.82 62.6211 12.09 62.5851 12.366H66.6351Z" fill="#F5F5F4"/>
</svg>
