<svg width="38" height="23" viewBox="0 0 38 23" fill="none" xmlns="http://www.w3.org/2000/svg">
<rect width="38" height="23" rx="4" fill="#FDE047"/>
<path d="M10.3509 11.754C10.3509 12.438 10.4349 13.062 10.6029 13.626C10.7709 14.178 11.0109 14.652 11.3229 15.048C11.6469 15.432 12.0369 15.732 12.4929 15.948C12.9489 16.164 13.4649 16.272 14.0409 16.272C14.6049 16.272 15.1149 16.164 15.5709 15.948C16.0269 15.732 16.4109 15.432 16.7229 15.048C17.0469 14.652 17.2929 14.178 17.4609 13.626C17.6289 13.062 17.7129 12.438 17.7129 11.754C17.7129 11.07 17.6289 10.452 17.4609 9.9C17.2929 9.336 17.0469 8.862 16.7229 8.478C16.4109 8.082 16.0269 7.776 15.5709 7.56C15.1149 7.344 14.6049 7.236 14.0409 7.236C13.4649 7.236 12.9489 7.344 12.4929 7.56C12.0369 7.776 11.6469 8.082 11.3229 8.478C11.0109 8.874 10.7709 9.348 10.6029 9.9C10.4349 10.452 10.3509 11.07 10.3509 11.754ZM20.0889 11.754C20.0889 12.822 19.9269 13.764 19.6029 14.58C19.2909 15.396 18.8589 16.08 18.3069 16.632C17.7669 17.172 17.1309 17.58 16.3989 17.856C15.6669 18.132 14.8869 18.27 14.0589 18.27C13.2309 18.27 12.4449 18.132 11.7009 17.856C10.9689 17.58 10.3269 17.172 9.77493 16.632C9.23493 16.08 8.80293 15.396 8.47893 14.58C8.15493 13.764 7.99293 12.822 7.99293 11.754C7.99293 10.686 8.15493 9.75 8.47893 8.946C8.80293 8.13 9.24093 7.446 9.79293 6.894C10.3569 6.342 11.0049 5.928 11.7369 5.652C12.4689 5.376 13.2429 5.238 14.0589 5.238C14.8749 5.238 15.6489 5.376 16.3809 5.652C17.1129 5.928 17.7489 6.342 18.2889 6.894C18.8409 7.446 19.2789 8.13 19.6029 8.946C19.9269 9.75 20.0889 10.686 20.0889 11.754ZM24.647 12.258C24.923 11.97 25.217 11.664 25.529 11.34C25.841 11.004 26.147 10.674 26.447 10.35C26.747 10.014 27.029 9.696 27.293 9.396C27.569 9.084 27.803 8.814 27.995 8.586H30.569C29.969 9.258 29.333 9.954 28.661 10.674C28.001 11.394 27.335 12.096 26.663 12.78C27.023 13.08 27.401 13.446 27.797 13.878C28.193 14.298 28.577 14.748 28.949 15.228C29.321 15.708 29.669 16.188 29.993 16.668C30.317 17.148 30.587 17.592 30.803 18H28.283C28.067 17.628 27.815 17.238 27.527 16.83C27.251 16.422 26.951 16.026 26.627 15.642C26.303 15.258 25.973 14.898 25.637 14.562C25.301 14.214 24.971 13.92 24.647 13.68V18H22.469V4.392L24.647 4.032V12.258Z" fill="#854D0E"/>
</svg>
