<svg width="16" height="16" viewBox="0 0 16 16" fill="none" xmlns="http://www.w3.org/2000/svg">
<circle cx="8" cy="8" r="8" fill="#78716C"/>
<path d="M8 10C7.60218 10 7.22064 9.84196 6.93934 9.56066C6.65804 9.27936 6.5 8.89782 6.5 8.5C6.5 7.94 6.805 7.45 7.25 7.195L12.105 4.385L9.34 9.175C9.09 9.665 8.585 10 8 10ZM8 3.5C8.905 3.5 9.75 3.75 10.485 4.16L9.435 4.765C9 4.595 8.5 4.5 8 4.5C6.93913 4.5 5.92172 4.92143 5.17157 5.67157C4.42143 6.42172 4 7.43913 4 8.5C4 9.605 4.445 10.605 5.17 11.325H5.175C5.37 11.52 5.37 11.835 5.175 12.03C4.98 12.225 4.66 12.225 4.465 12.035C3.56 11.13 3 9.88 3 8.5C3 7.17392 3.52678 5.90215 4.46447 4.96447C5.40215 4.02678 6.67392 3.5 8 3.5ZM13 8.5C13 9.88 12.44 11.13 11.535 12.035C11.34 12.225 11.025 12.225 10.83 12.03C10.635 11.835 10.635 11.52 10.83 11.325C11.555 10.6 12 9.605 12 8.5C12 8 11.905 7.5 11.73 7.05L12.335 6C12.75 6.75 13 7.59 13 8.5Z" fill="#F5F5F4"/>
</svg>
