<svg width="69" height="23" viewBox="0 0 69 23" fill="none" xmlns="http://www.w3.org/2000/svg">
<rect width="69" height="23" rx="4" fill="#22C55E"/>
<path d="M17.2485 5.526V7.488H13.4145V18H11.1285V7.488H7.29455V5.526H17.2485ZM26.4 13.284C26.4 14.028 26.292 14.706 26.076 15.318C25.86 15.93 25.554 16.452 25.158 16.884C24.762 17.316 24.282 17.652 23.718 17.892C23.166 18.132 22.554 18.252 21.882 18.252C21.21 18.252 20.598 18.132 20.046 17.892C19.494 17.652 19.02 17.316 18.624 16.884C18.228 16.452 17.916 15.93 17.688 15.318C17.472 14.706 17.364 14.028 17.364 13.284C17.364 12.54 17.472 11.868 17.688 11.268C17.916 10.656 18.228 10.134 18.624 9.702C19.032 9.27 19.512 8.94 20.064 8.712C20.616 8.472 21.222 8.352 21.882 8.352C22.542 8.352 23.148 8.472 23.7 8.712C24.264 8.94 24.744 9.27 25.14 9.702C25.536 10.134 25.842 10.656 26.058 11.268C26.286 11.868 26.4 12.54 26.4 13.284ZM24.168 13.284C24.168 12.348 23.964 11.61 23.556 11.07C23.16 10.518 22.602 10.242 21.882 10.242C21.162 10.242 20.598 10.518 20.19 11.07C19.794 11.61 19.596 12.348 19.596 13.284C19.596 14.232 19.794 14.982 20.19 15.534C20.598 16.086 21.162 16.362 21.882 16.362C22.602 16.362 23.16 16.086 23.556 15.534C23.964 14.982 24.168 14.232 24.168 13.284ZM34.8898 13.338C34.8898 12.366 34.6678 11.61 34.2238 11.07C33.7918 10.53 33.0898 10.26 32.1178 10.26C31.9138 10.26 31.6978 10.272 31.4698 10.296C31.2538 10.308 31.0378 10.344 30.8218 10.404V15.786C31.0138 15.918 31.2658 16.044 31.5778 16.164C31.9018 16.272 32.2438 16.326 32.6038 16.326C33.3958 16.326 33.9718 16.056 34.3318 15.516C34.7038 14.976 34.8898 14.25 34.8898 13.338ZM37.1218 13.302C37.1218 14.022 37.0258 14.682 36.8338 15.282C36.6538 15.882 36.3898 16.398 36.0418 16.83C35.6938 17.262 35.2558 17.598 34.7278 17.838C34.2118 18.078 33.6238 18.198 32.9638 18.198C32.5198 18.198 32.1118 18.144 31.7398 18.036C31.3678 17.928 31.0618 17.808 30.8218 17.676V21.33H28.6438V8.892C29.0878 8.772 29.6338 8.658 30.2818 8.55C30.9298 8.442 31.6138 8.388 32.3338 8.388C33.0778 8.388 33.7438 8.502 34.3318 8.73C34.9198 8.958 35.4178 9.288 35.8258 9.72C36.2458 10.14 36.5638 10.656 36.7798 11.268C37.0078 11.868 37.1218 12.546 37.1218 13.302ZM53.0176 18H50.8396V8.586H53.0176V18ZM53.2696 5.832C53.2696 6.24 53.1376 6.564 52.8736 6.804C52.6096 7.044 52.2976 7.164 51.9376 7.164C51.5656 7.164 51.2476 7.044 50.9836 6.804C50.7196 6.564 50.5876 6.24 50.5876 5.832C50.5876 5.412 50.7196 5.082 50.9836 4.842C51.2476 4.602 51.5656 4.482 51.9376 4.482C52.2976 4.482 52.6096 4.602 52.8736 4.842C53.1376 5.082 53.2696 5.412 53.2696 5.832ZM47.4376 4.032C47.8936 4.032 48.2776 4.068 48.5896 4.14C48.9136 4.212 49.1656 4.284 49.3456 4.356L49.0036 6.12C48.8356 6.06 48.6316 6.006 48.3916 5.958C48.1636 5.91 47.9116 5.886 47.6356 5.886C46.9156 5.886 46.4176 6.078 46.1416 6.462C45.8776 6.846 45.7456 7.344 45.7456 7.956V8.586H49.2016V10.404H45.7456V18H43.5676V7.92C43.5676 6.696 43.8856 5.742 44.5216 5.058C45.1576 4.374 46.1296 4.032 47.4376 4.032ZM55.694 6.102L57.872 5.742V8.586H61.22V10.404H57.872V14.238C57.872 14.994 57.992 15.534 58.232 15.858C58.472 16.182 58.88 16.344 59.456 16.344C59.852 16.344 60.2 16.302 60.5 16.218C60.812 16.134 61.058 16.056 61.238 15.984L61.598 17.712C61.346 17.82 61.016 17.928 60.608 18.036C60.2 18.156 59.72 18.216 59.168 18.216C58.496 18.216 57.932 18.126 57.476 17.946C57.032 17.766 56.678 17.508 56.414 17.172C56.15 16.824 55.964 16.41 55.856 15.93C55.748 15.438 55.694 14.88 55.694 14.256V6.102Z" fill="#14532D"/>
</svg>
